<svg xmlns="http://www.w3.org/2000/svg" width="64" height="64" fill="none" viewBox="0 0 64 64">
  <g clip-path="url(#a)">
    <path fill="#44A3DD" d="M0 0h64v64H0V0Z"/>
    <path fill="#BEE5F7" d="M12.5 23h13.176c.99 0 1.9.541 2.373 1.41L39.779 46H24.083a2.7 2.7 0 0 1-2.373-1.41L11.182 25.215A1.5 1.5 0 0 1 12.5 23Z"/>
    <path fill="#fff" d="M51.591 23a1.501 1.501 0 0 1 1.352 2.15l-.034.066L42.382 44.59A2.7 2.7 0 0 1 40.105 46H24.082l-.096-.002a2.698 2.698 0 0 1-1.377-.435c.203.116.433.191.678.213.026.003.236.022.47-.04.098-.027.463-.112.849-.473.115-.108.277-.34.485-.697l10.952-20.155A2.7 2.7 0 0 1 38.32 23l.096-.001H51.59Z"/>
  </g>
  <defs>
    <clipPath id="a">
      <rect width="64" height="64" fill="#fff" rx="16"/>
    </clipPath>
  </defs>
</svg>
